<svg width="300" height="200" xmlns="http://www.w3.org/2000/svg">
  <rect width="100%" height="100%" fill="#f7fee7"/>
  <rect x="10" y="10" width="280" height="180" fill="#ecfccb" stroke="#65a30d" stroke-width="2" rx="10"/>
  <ellipse cx="150" cy="130" rx="60" ry="20" fill="#84cc16"/>
  <ellipse cx="120" cy="110" rx="25" ry="15" fill="#84cc16"/>
  <circle cx="115" cy="105" r="2" fill="#1f2937"/>
  <path d="M100 105 L110 100" stroke="#1f2937" stroke-width="2"/>
  <ellipse cx="90" cy="120" rx="8" ry="12" fill="#84cc16"/>
  <ellipse cx="80" cy="135" rx="6" ry="10" fill="#84cc16"/>
  <ellipse cx="70" cy="145" rx="5" ry="8" fill="#84cc16"/>
  <ellipse cx="210" cy="130" rx="15" ry="8" fill="#84cc16"/>
  <ellipse cx="225" cy="135" rx="12" ry="6" fill="#84cc16"/>
  <ellipse cx="240" cy="140" rx="10" ry="5" fill="#84cc16"/>
  <ellipse cx="130" cy="150" rx="8" ry="12" fill="#84cc16"/>
  <ellipse cx="170" cy="150" rx="8" ry="12" fill="#84cc16"/>
  <ellipse cx="145" cy="155" rx="6" ry="10" fill="#84cc16"/>
  <ellipse cx="155" cy="155" rx="6" ry="10" fill="#84cc16"/>
  <path d="M110 120 L120 115 M130 125 L140 120 M160 125 L170 120 M180 125 L190 120" stroke="#65a30d" stroke-width="1"/>
  <text x="150" y="185" text-anchor="middle" font-family="Arial, sans-serif" font-size="12" fill="#374151">Komodo Dragon</text>
</svg>