<svg width="300" height="200" xmlns="http://www.w3.org/2000/svg">
  <rect width="100%" height="100%" fill="#f0fdf4"/>
  <rect x="10" y="10" width="280" height="180" fill="#dcfce7" stroke="#16a34a" stroke-width="2" rx="10"/>
  <path d="M150 30 Q140 40 145 60 Q150 80 155 60 Q160 40 150 30" fill="#22c55e"/>
  <ellipse cx="150" cy="120" rx="25" ry="40" fill="#15803d"/>
  <ellipse cx="150" cy="115" rx="20" ry="35" fill="#16a34a"/>
  <path d="M130 100 Q150 95 170 100 Q165 110 150 105 Q135 110 130 100" fill="#22c55e"/>
  <circle cx="145" cy="125" r="2" fill="#065f46"/>
  <circle cx="155" cy="130" r="2" fill="#065f46"/>
  <circle cx="150" cy="140" r="1.5" fill="#065f46"/>
  <path d="M140 80 Q130 85 125 90" stroke="#16a34a" stroke-width="2" fill="none"/>
  <path d="M160 80 Q170 85 175 90" stroke="#16a34a" stroke-width="2" fill="none"/>
  <text x="150" y="175" text-anchor="middle" font-family="Arial, sans-serif" font-size="12" fill="#374151">Kantong Semar</text>
</svg>