<svg width="300" height="200" xmlns="http://www.w3.org/2000/svg">
  <rect width="100%" height="100%" fill="#fef2f2"/>
  <rect x="10" y="10" width="280" height="180" fill="#fee2e2" stroke="#dc2626" stroke-width="2" rx="10"/>
  <circle cx="150" cy="100" r="60" fill="#dc2626"/>
  <circle cx="150" cy="100" r="45" fill="#b91c1c"/>
  <circle cx="150" cy="100" r="30" fill="#991b1b"/>
  <circle cx="150" cy="100" r="15" fill="#7f1d1d"/>
  <path d="M120 70 Q150 60 180 70 Q170 100 150 110 Q130 100 120 70" fill="#ef4444"/>
  <path d="M120 130 Q150 140 180 130 Q170 100 150 90 Q130 100 120 130" fill="#ef4444"/>
  <path d="M90 100 Q80 130 110 130 Q120 100 90 100" fill="#ef4444"/>
  <path d="M210 100 Q220 130 190 130 Q180 100 210 100" fill="#ef4444"/>
  <text x="150" y="175" text-anchor="middle" font-family="Arial, sans-serif" font-size="12" fill="#374151">Rafflesia Arnoldii</text>
</svg>